<svg width="16" height="16" viewBox="0 0 16 16" fill="none" xmlns="http://www.w3.org/2000/svg">
<path d="M11.9534 1.36415L13.3001 1.51378C14.2298 1.61708 14.9445 2.36095 14.7905 3.28361C14.5138 4.94113 13.5926 7.70215 10.6476 10.6472C7.70268 13.5921 4.94134 14.5137 3.28354 14.7906C2.36073 14.9448 1.61662 14.23 1.5133 13.3001L1.36371 11.9538C1.27564 11.1612 1.66691 10.392 2.35941 9.99638L3.32846 9.44279C4.03161 9.0411 4.91659 9.15967 5.4892 9.73228C5.9138 10.1569 6.52747 10.3361 7.05754 10.054C7.51576 9.81008 8.11395 9.40961 8.76156 8.762C9.40917 8.11438 9.80965 7.5162 10.0535 7.05798C10.3356 6.52791 10.1564 5.91424 9.73184 5.48964C9.15923 4.91703 9.04066 4.03205 9.44235 3.3289L9.99594 2.35985C10.3915 1.66735 11.1608 1.27608 11.9534 1.36415Z" stroke="#A9A9A9" stroke-width="1.5" stroke-linecap="round" stroke-linejoin="round"/>
</svg>
