<svg width="16.000000" height="16.000000" viewBox="0 0 16 16" fill="none" xmlns="http://www.w3.org/2000/svg" xmlns:xlink="http://www.w3.org/1999/xlink">
	<desc>
			Created with Pixso.
	</desc>
	<defs>
		<clipPath id="clip1757_16432">
			<rect id="IconApp" rx="3.076923" width="16.000000" height="16.000000" fill="white" fill-opacity="0"/>
		</clipPath>
		<linearGradient id="paint_linear_1757_16432_0" x1="8.000000" y1="0.000000" x2="8.000000" y2="16.000000" gradientUnits="userSpaceOnUse">
			<stop stop-color="#609D8B"/>
			<stop offset="1.000000" stop-color="#609D8B" stop-opacity="0.549020"/>
		</linearGradient>
		<linearGradient id="paint_linear_1757_16435_0" x1="8.006042" y1="10.954285" x2="16.749104" y2="10.954285" gradientUnits="userSpaceOnUse">
			<stop stop-color="#FFFFFF" stop-opacity="0.878431"/>
			<stop offset="1.000000" stop-color="#FFFFFF"/>
		</linearGradient>
		<linearGradient id="paint_linear_1757_16436_0" x1="1.206111" y1="14.623898" x2="21.174837" y2="14.623898" gradientUnits="userSpaceOnUse">
			<stop stop-color="#FFFFFF" stop-opacity="0.439216"/>
			<stop offset="0.778940" stop-color="#FFFFFF"/>
		</linearGradient>
		<linearGradient id="paint_linear_1757_16437_0" x1="5.335303" y1="9.547363" x2="5.335303" y2="16.065222" gradientUnits="userSpaceOnUse">
			<stop stop-color="#FFFFFF" stop-opacity="0.270588"/>
			<stop offset="1.000000" stop-color="#FFFFFF" stop-opacity="0.368627"/>
		</linearGradient>
	</defs>
	<rect id="IconApp" rx="3.076923" width="16.000000" height="16.000000" fill="url(#paint_linear_1757_16432_0)" fill-opacity="1.000000"/>
	<g clip-path="url(#clip1757_16432)">
		<path id="Vector 2674" d="M7.62 16.02L7.62 9.54C7.96 9.54 8.27 9.39 8.48 9.12L11.48 5.18C11.64 4.98 11.94 4.95 12.13 5.13L16.61 9.41C16.7 9.5 16.74 9.61 16.74 9.73L16.74 15.15C16.74 15.63 16.35 16.02 15.87 16.02L13.64 16.02L13.64 11.21C13.64 10.85 13.35 10.56 12.99 10.56L11.81 10.56C11.45 10.56 11.16 10.85 11.16 11.21L11.16 16.02L7.62 16.02Z" fill="url(#paint_linear_1757_16435_0)" fill-opacity="1.000000" fill-rule="evenodd"/>
		<path id="Vector 2675" d="M7.62 16.02L3.72 16.02C3.24 16.02 2.85 15.63 2.85 15.15L2.85 9.56L1.54 9.56C1.34 9.56 1.24 9.32 1.39 9.19L6.21 4.68C6.57 4.34 7.05 4.15 7.54 4.15L11.47 4.15C11.97 4.15 12.46 4.34 12.82 4.69L17.76 9.39C17.9 9.52 17.8 9.76 17.61 9.76L16.74 9.76L12.13 5.15C11.94 4.96 11.64 4.98 11.48 5.19L8.48 9.12C8.27 9.39 7.96 9.54 7.62 9.54L7.62 16.02Z" fill="url(#paint_linear_1757_16436_0)" fill-opacity="1.000000" fill-rule="evenodd"/>
		<path id="Rectangle 3277" d="M2.85 9.54L7.62 9.54L7.62 16.02L3.72 16.02C3.24 16.02 2.85 15.63 2.85 15.15L2.85 9.54Z" fill="url(#paint_linear_1757_16437_0)" fill-opacity="1.000000" fill-rule="nonzero"/>
	</g>
</svg>
