<svg width="16.000000" height="16.000000" viewBox="0 0 16 16" fill="none" xmlns="http://www.w3.org/2000/svg" xmlns:xlink="http://www.w3.org/1999/xlink">
	<desc>
			Created with Pixso.
	</desc>
	<defs/>
	<rect width="16.000000" height="16.000000" transform="translate(0.000000 -0.500000)" fill="#FFFFFF" fill-opacity="0"/>
	<path d="M11.95 0.86C11.16 0.77 10.39 1.16 9.99 1.85L9.44 2.82C9.04 3.53 9.16 4.41 9.73 4.98C10.15 5.41 10.33 6.02 10.05 6.55C9.81 7.01 9.41 7.61 8.76 8.26C8.11 8.9 7.51 9.3 7.05 9.55C6.52 9.83 5.91 9.65 5.49 9.23C4.91 8.66 4.03 8.54 3.33 8.94L2.36 9.49C1.66 9.89 1.27 10.66 1.36 11.45L1.51 12.79C1.61 13.73 2.36 14.44 3.28 14.29C4.94 14.01 7.7 13.09 10.64 10.14C13.59 7.2 14.51 4.44 14.79 2.78C14.94 1.86 14.23 1.11 13.3 1.01L11.95 0.86Z" stroke="#FFFFFF" stroke-opacity="1.000000" stroke-width="2.000000" stroke-linejoin="round"/>
</svg>
