<svg width="24" height="24" viewBox="0 0 24 24" fill="none" xmlns="http://www.w3.org/2000/svg">
<path d="M17.2777 1.97393L20.7457 2.35926C21.6754 2.46256 22.3924 3.19991 22.2947 4.13022C22.0507 6.45589 20.9013 11.0416 15.9719 15.971C11.0426 20.9003 6.45629 22.0504 4.13019 22.2948C3.19972 22.3926 2.46212 21.6756 2.3588 20.7457L1.97351 17.2781C1.88544 16.4855 2.27671 15.7163 2.96921 15.3207L5.45331 13.9016C6.23635 13.4542 7.22191 13.5863 7.85959 14.224L8.49687 14.8612C8.96972 15.3341 9.65114 15.5342 10.2555 15.2479C10.9715 14.9087 12.0065 14.2796 13.1428 13.1432C14.2792 12.0069 14.9083 10.9719 15.2475 10.2559C15.5338 9.65156 15.3337 8.97013 14.8608 8.49729L14.2236 7.86C13.5859 7.22232 13.4538 6.23677 13.9012 5.45372L15.3202 2.96963C15.7158 2.27713 16.4851 1.88586 17.2777 1.97393Z" stroke="#2C2C2C" stroke-width="2" stroke-linecap="round" stroke-linejoin="round"/>
</svg>
